<?xml version="1.0" encoding="utf-8"?>
<!-- Generator: Adobe Illustrator 22.0.1, SVG Export Plug-In . SVG Version: 6.00 Build 0)  -->
<svg version="1.1" id="Layer_1" xmlns="http://www.w3.org/2000/svg" xmlns:xlink="http://www.w3.org/1999/xlink" x="0px" y="0px"
	 viewBox="0 0 250 250" style="enable-background:new 0 0 250 250;" xml:space="preserve">
<style type="text/css">
	.st0{fill:#FFFFFF;}
</style>
<path class="st0" d="M168,17c0,5,0,10,0,15.7c4.5,0,8.7,0,13,0c12.6,0.1,21.1,8.4,21.3,20.8c0.2,16,0.1,32,0,48c0,1-0.2,1.9-0.2,1.6
	c-10-0.5-19.7-1.4-29.4-1.5c-45.3-0.2-90.6-0.1-136-0.1c-2,0-4,0-6.4,0c-0.1,1.8-0.3,3.2-0.3,4.7c0,25.2,0,50.3,0,75.5
	c0,7,2.2,9.2,9.2,9.3c24.2,0,48.3,0.1,72.5,0c3,0,4.9,0.5,6.1,3.6c1.5,3.5,3.7,6.6,5.9,10.5c-2.1,0-3.8,0-5.6,0c-25.5,0-51,0-76.5,0
	c-15.4,0-20.6-3.6-25.8-18.1c0-45.7,0-91.3,0-137c5.3-13.8,10.5-17.3,25.7-17.3c5.1,0,10.2,0,16.3,0c0-5.6,0-10.7,0-15.7
	c4.3,0,8.7,0,13,0c0,5.1,0,10.2,0,15.4c28.2,0,55.5,0,83,0c0-5.4,0-10.4,0-15.4C158.7,17,163.3,17,168,17z M167.9,66.9
	c-4.9,0-9.2,0-14,0c0-6.8,0-13.4,0-20c-27.8,0-55,0-82.8,0c0,6.9,0,13.5,0,20c-4.7,0-8.8,0-13.5,0c0-6.8,0-13.4,0-20.3
	c-7.4,0-14.2-0.2-21,0.1c-3.5,0.1-6.2,2.4-6.3,5.9c-0.3,11.6-0.1,23.2-0.1,35c52.9,0,105.3,0,158.2,0c0-11.9,0.3-23.6-0.3-35.4
	c-0.1-1.9-3.3-4.9-5.5-5.3c-4.6-0.8-9.5-0.3-14.6-0.3C167.9,53.6,167.9,60,167.9,66.9z"/>
<path class="st0" d="M178,226c-6.1-1.6-12.4-2.6-18.2-5c-24.4-10-37.8-36.7-32-62.6c5.7-25.6,29.3-44.1,55.2-43.1
	c27,1,49.2,20.6,53.1,46.8c0.2,1.3,0.6,2.6,0.9,3.8c0,3,0,6,0,9c-0.3,1.3-0.6,2.5-0.9,3.8c-3.7,21-15.5,35.5-35.3,43.3
	c-5,2-10.5,2.7-15.8,3.9C182.7,226,180.3,226,178,226z M222.9,170.9c0-23-18.6-41.8-41.5-41.7c-22.3,0-41.3,18.9-41.3,41
	c0,23,18.7,41.8,41.5,41.7C204.1,211.8,222.9,193.1,222.9,170.9z"/>
<path class="st0" d="M98.8,122.6c0,4.4,0,8.7,0,13.2c-15.9,0-31.6,0-47.7,0c0-4.3,0-8.6,0-13.2C66.9,122.6,82.7,122.6,98.8,122.6z"
	/>
<path class="st0" d="M98.9,157.1c0,4.6,0,8.7,0,13.1c-15.9,0-31.7,0-47.8,0c0-4.4,0-8.6,0-13.1C66.9,157.1,82.7,157.1,98.9,157.1z"
	/>
<path class="st0" d="M175,177c0-11.5,0-22.5,0-33.8c4.4,0,8.5,0,13.3,0c0,6.6,0,13.3,0,20.4c7.2,0,13.6,0,20.4,0c0,4.7,0,8.9,0,13.4
	C197.6,177,186.6,177,175,177z"/>
</svg>
