<?xml version="1.0" encoding="utf-8"?>
<!-- Generator: Adobe Illustrator 22.0.1, SVG Export Plug-In . SVG Version: 6.00 Build 0)  -->
<svg version="1.1" id="Layer_1" xmlns="http://www.w3.org/2000/svg" xmlns:xlink="http://www.w3.org/1999/xlink" x="0px" y="0px"
	 viewBox="0 0 250 250" style="enable-background:new 0 0 250 250;" xml:space="preserve">
<style type="text/css">
	.st0{fill:#FFFFFF;}
</style>
<g>
	<path class="st0" d="M9.2,64.4c5.5,1.9,10.9,3.8,16.4,5.6c4.6,1.5,9.1,3.3,13.9,4.3c5.6,1.2,10.9,0,15.9-3.2C66,64.3,77,58.1,89,54
		c9.7-3.3,18.9-2.3,27.4,3.4c1.2,0.8,2.3,1.9,3.7,3.1c-1,0.6-1.8,1-2.5,1.4c-9.8,5.7-19.7,11.2-29.3,17.2
		c-8.6,5.3-12.3,14.8-10.4,24.6c1.8,9.2,9.3,16.5,18.9,18.5c4.7,1,9.1-0.3,13.3-2.1c7.6-3.3,15.2-6.9,22.8-10.4
		c2.8-1.3,5.5-2.6,8.7-2.5c4.1,0.1,7.6,1.5,10.4,4.3c15.2,15.2,30.5,30.4,45.6,45.6c4,4.1,3.9,10.8-0.2,14.8
		c-4.1,4-10.7,3.9-14.8-0.2c-4.5-4.5-9.1-9-13.7-13.5c-0.8-0.8-1.6-1.6-2.5-2.2c-0.6-0.4-1.4-0.3-2.1-0.4c0.1,0.7,0,1.6,0.3,2.2
		c0.7,1.1,1.5,2.1,2.4,3c4,4.2,8.2,8.4,12.1,12.6c2.7,2.9,4.2,6.3,3.4,10.4c-0.8,4-3.1,6.6-7,7.8c-4.3,1.4-8.1,0.1-11.2-3
		c-5.3-5.2-10.5-10.5-15.8-15.7c-1-1-2.1-1.9-3.2-2.7c-0.5-0.4-1.1-0.5-1.6-0.7c-0.2,0.2-0.4,0.3-0.5,0.5c0.5,1,0.9,2.1,1.5,2.9
		c2.6,3,5.2,6,8,8.9c2.3,2.4,4.7,4.7,7,7.1c4,4,3.7,11.2-0.7,15.1c-4.4,3.9-11.1,3.2-14.9-1.1c-3.5-4-7.5-7.7-11.3-11.5
		c-1.9-1.9-3.9-3.9-5.9-5.7c-0.5-0.4-1.4-0.4-2.1-0.6c0.1,0.8-0.1,1.8,0.3,2.3c2.5,2.9,5.1,5.7,7.7,8.4c1.8,2,3.8,3.8,5.7,5.7
		c3.9,4,3.9,10.5,0,14.6c-3.8,4-10.3,4.4-14.4,0.7c-2-1.8-3.8-3.8-5.5-5.9c-0.4-0.4-0.5-1.3-0.4-1.9c1.2-11.4-4.8-21.1-15.4-25.2
		c-0.6-0.2-1.3-1-1.5-1.6c-2.3-7.3-7-12.4-14.1-15.3c-0.6-0.3-1.4-0.9-1.6-1.6c-2.4-7-7.1-11.8-14-14.5c-0.5-0.2-1.2-0.8-1.3-1.3
		c-3.7-11.4-14.8-17.6-26.7-15.7c-9.8,1.5-16.7,6.9-20.6,16c-0.1,0.3-0.3,0.6-0.4,1c0,0.1-0.1,0.2-0.2,0.3
		c-4.3-1.4-8.6-2.8-12.9-4.1C9.2,119.3,9.2,91.8,9.2,64.4z"/>
	<path class="st0" d="M85.7,222.9c-1.9-0.8-4.1-1.4-5.6-2.6c-3.2-2.6-4.3-6.2-2.9-10.2c0.7-2.1,1.6-4.1,2.5-6.2
		c-2.7,0.6-5.4,1.3-8.1,1.7c-5.1,0.7-9.6-2.3-10.4-7.2c-0.3-1.8,0.1-3.8,0.5-5.7c0.3-1.6,1.1-3.1,1.8-4.9c-1.2,0.3-2.1,0.6-3.1,0.8
		c-1.4,0.3-2.8,0.7-4.3,1c-7.5,1.3-12.5-6.7-10.1-12.6c0.7-1.6,1.2-3.3,2-5.2c-0.8,0.2-1.3,0.3-1.8,0.4c-1.3,0.4-2.6,0.8-3.9,1.1
		c-6.8,1.4-12-2.5-12.5-9.4c-0.6-7.9,6.3-17.5,13.9-19.4c9.9-2.5,17.8,4.7,16.2,14.7c-0.1,0.3-0.1,0.7-0.1,1.2
		c4.7-0.6,9.1-0.1,12.5,3.5c3.4,3.5,3.8,7.8,2.9,12.4c12-1.7,18.2,7.4,15.2,17.3c1.5-0.1,3-0.4,4.5-0.4
		c10.1,0.2,15.8,10.7,10.6,19.8c-3.1,5.5-8.2,8-14.2,9.3c-0.4,0.1-0.9,0.2-1.3,0.3C88.5,222.9,87.1,222.9,85.7,222.9z"/>
	<path class="st0" d="M247,72.3c0,0.9,0,1.4,0,2c0,22.7,0,45.4,0,68c0,1.5-0.4,2.1-1.9,2.4c-7.5,1.3-14.9,2.8-22.4,3.9
		c-6.1,0.9-11.4-0.8-15.9-5.3c-15.7-15.7-31.7-31.1-47.3-46.9c-5.8-5.8-12.7-6.2-18.7-3.2c-11.1,5.6-22.1,11.4-33.1,17.2
		c-6.6,3.5-14.9,1.4-18.6-5.1c-3.8-6.6-1.5-15,5-18.7c16.3-9.3,32.7-18.6,49.1-27.8c3.4-1.9,6.8-3.7,10.2-5.5
		c6-3.3,11.9-3.1,17.3,0.9c4.8,3.5,9.3,7.4,13.9,11.2c4.7,3.9,9.3,7.9,13.9,11.8c3.5,3,7.6,4,12.1,3.1c11.4-2.4,22.8-5,34.2-7.5
		C245.3,72.6,246,72.5,247,72.3z"/>
</g>
</svg>
