<?xml version="1.0" encoding="utf-8"?>
<!-- Generator: Adobe Illustrator 22.0.1, SVG Export Plug-In . SVG Version: 6.00 Build 0)  -->
<svg version="1.1" id="Layer_1" xmlns="http://www.w3.org/2000/svg" xmlns:xlink="http://www.w3.org/1999/xlink" x="0px" y="0px"
	 viewBox="0 0 250 250" style="enable-background:new 0 0 250 250;" xml:space="preserve">
<style type="text/css">
	.st0{fill:#FFFFFF;}
</style>
<g>
	<path class="st0" d="M116.7,235v-12.4c-19-1.1-33.8-6.9-44.2-17.3c-10.4-10.4-16.2-24-17.4-40.6l35.2-7
		c0.9,21.5,8.7,34.9,23.5,40.4l2.9,0.9v-61l-35.2-22.5c-8.1-5.2-14.5-11.7-19.3-19.4S55,79.5,55,69.5c0-14.5,5.6-26,16.9-34.6
		S98.1,22,116.7,22V10h17.6v13.3l5.6,1c28.9,6.3,44.6,22.6,47.1,49l-35.2,7C151,66.5,146,56.7,137,50.7l-2.7-1.6v62.2l17.6,11.2
		c10.3,6.4,18.8,14.2,25.3,23.3s9.8,19.5,9.8,31c0,13.3-4.8,23.8-14.3,31.8c-9.5,7.9-22.3,12.6-38.5,14V235H116.7z M116.7,100V45.2
		c-8.4,0-14.9,1.9-19.5,5.7s-6.9,9-6.9,15.7c0,11.1,5.9,20.4,17.6,27.8L116.7,100z M134.3,199.2c11.7-2.1,17.6-8.9,17.6-20.4
		c0-5.7-1.3-10.7-3.8-14.8c-2.6-4.2-6.2-8.2-11-12l-2.7-2.2v49.4H134.3z"/>
</g>
</svg>
