<?xml version="1.0" encoding="utf-8"?>
<!-- Generator: Adobe Illustrator 22.0.1, SVG Export Plug-In . SVG Version: 6.00 Build 0)  -->
<svg version="1.1" id="Layer_1" xmlns="http://www.w3.org/2000/svg" xmlns:xlink="http://www.w3.org/1999/xlink" x="0px" y="0px"
	 viewBox="0 0 250 250" style="enable-background:new 0 0 250 250;" xml:space="preserve">
<style type="text/css">
	.st0{fill:#FFFFFF;}
</style>
<path class="st0" d="M107.9,120.4c10.2,0,20.5,0,30.7,0c2.4,0,5.2,2,6.1,4.2c0.8,1.9-0.2,5.9-1.7,7.4c-0.7,0.7-1.7,0.6-2.5,0.7
	c-6.9,0.7-13.7,1.4-20.6,2c-3.8,0.4-7.6,0.8-11.4,1.2c-1.2,0.1-1.8,0.7-2.2,1.8c-0.4,1.2,0.2,1.8,1,2.5c6.4,5.3,13.2,10.4,19.2,16.2
	c2.5,2.4,4.9,2.6,7.9,2.6c8.1,0,16.3,0,24.4,0c1.1,0,2.1-0.2,3-0.9c10.3-7.6,20.7-15,31.3-22.2c2.5-1.7,5-3.3,7.6-4.8
	c4-2.4,8.2-1.3,12.2,0.1c1.6,0.6,3,1.6,4.5,2.6c1.1,0.7,1.1,1.4,0.4,2.4c-1.9,2.7-4.1,5.1-6.4,7.4c-12.7,13.1-26,25.5-39.9,37.4
	c-1.7,1.4-3.6,1.3-5.4,1.6c-10.1,1.6-20.3,2.9-30.4,4.6c-6,1-11.8,0.3-17.7-0.1c-4.2-0.3-8.4-0.7-12.6-1c-7.7-0.6-15.4-1.2-23.1-1.8
	c-1.3-0.1-2.3,0.2-3.3,1.1c-5.5,5.3-11.1,10.5-16.6,15.7c-1.1,1.1-1.7,1.1-2.7-0.2c-9.7-13.2-19.5-26.3-29.3-39.4
	c-0.8-1.1-0.6-1.5,0.4-2.2c6.2-4.3,12.3-8.7,18.5-13.1c0.7-0.5,1.3-1,1.9-1.6c7.5-7.5,15-14.9,22.4-22.4c1.1-1.1,2.1-1.6,3.7-1.6
	C87.5,120.4,97.7,120.4,107.9,120.4z"/>
<path class="st0" d="M57.2,214.9c0,0.7-0.5,0.9-0.9,1.3c-6.8,6.8-13.7,13.7-20.5,20.5c-1.1,1.1-1.5,1-1.9-0.5c-2-7.7-4-15.4-6-23.2
	c-4.5-17.1-8.9-34.2-13.4-51.3c-0.4-1.4-0.2-2.1,1.3-2.6c1.8-0.6,3.4-1.4,5.1-2.2c1.2-0.6,1.9-0.4,2.6,0.8
	c3.3,5.8,6.8,11.5,10.1,17.2c7.7,12.9,15.3,25.9,23,38.8C56.8,214.2,57,214.6,57.2,214.9z"/>
<path class="st0" d="M95.2,51.2c-14.4,0-26,11.6-26,26s11.6,26,26,26s26-11.6,26-26S109.5,51.2,95.2,51.2z M95.2,98.9
	c-12,0-21.7-9.7-21.7-21.7s9.7-21.7,21.7-21.7s21.7,9.7,21.7,21.7S107.2,98.9,95.2,98.9z"/>
<path class="st0" d="M109.9,80.8c-0.5-0.6-1.1-1.4-1.9-2.3c-0.8,1-1.4,1.7-2.2,2.6c-0.8-1-1.5-1.7-2.3-2.7c-0.7,0.9-1.2,1.7-1.9,2.5
	c-0.9-0.9-1.7-1.6-2.5-2.3c-0.8,0.8-1.5,1.6-2.3,2.3c-0.3,0.3-0.8,0.6-1.2,0.5c-1.9-0.2-3.2,0.4-4.5,1.9c-2.6,2.8-6,3.3-9.4,1.9
	c-3.4-1.3-5.2-4-5.5-7.6c-0.4-4.8,3-8.9,7.5-9.6c3.6-0.5,6.5,0.8,8.6,3.7c0.4,0.6,0.8,0.8,1.5,0.8c5.4,0,10.8,0,16.3,0
	c0.6,0,1,0.2,1.4,0.6c0.8,0.9,1.6,1.7,2.5,2.6c0.3,0.4,0.5,0.8,0.1,1.2C112.7,78.2,111.3,79.4,109.9,80.8z M81,79.3
	c1.3,0,2.4-1.1,2.4-2.4c0-1.2-1.1-2.4-2.4-2.4s-2.4,1.1-2.4,2.4C78.7,78.3,79.7,79.3,81,79.3z"/>
<path class="st0" d="M176,72.9c-14.4,0-26,11.6-26,26s11.6,26,26,26s26-11.6,26-26S190.4,72.9,176,72.9z M176,120.7
	c-12,0-21.7-9.7-21.7-21.7S164,77.3,176,77.3S197.7,87,197.7,99C197.7,110.9,188,120.7,176,120.7z"/>
<path class="st0" d="M190.7,102.5c-0.5-0.6-1.1-1.4-1.9-2.3c-0.8,1-1.4,1.7-2.2,2.6c-0.8-1-1.5-1.7-2.3-2.7
	c-0.7,0.9-1.2,1.7-1.9,2.5c-0.9-0.9-1.7-1.6-2.5-2.3c-0.8,0.8-1.5,1.6-2.3,2.3c-0.3,0.3-0.8,0.6-1.2,0.5c-1.9-0.2-3.2,0.4-4.5,1.9
	c-2.6,2.8-6,3.3-9.4,1.9c-3.4-1.3-5.2-4-5.5-7.6c-0.4-4.8,3-8.9,7.5-9.6c3.6-0.5,6.5,0.8,8.6,3.7c0.4,0.6,0.8,0.8,1.5,0.8
	c5.4,0,10.8,0,16.3,0c0.6,0,1,0.2,1.4,0.6c0.8,0.9,1.6,1.7,2.5,2.6c0.3,0.4,0.5,0.8,0.1,1.2C193.5,99.9,192.2,101.1,190.7,102.5z
	 M161.9,101.1c1.3,0,2.4-1.1,2.4-2.4c0-1.2-1.1-2.4-2.4-2.4c-1.3,0-2.4,1.1-2.4,2.4S160.5,101.1,161.9,101.1z"/>
<path class="st0" d="M150,16c-14.4,0-26,11.6-26,26s11.6,26,26,26s26-11.6,26-26S164.4,16,150,16z M150,63.7
	c-12,0-21.7-9.7-21.7-21.7S138,20.3,150,20.3S171.7,30,171.7,42S162,63.7,150,63.7z"/>
<path class="st0" d="M164.7,45.6c-0.5-0.6-1.1-1.4-1.9-2.3c-0.8,1-1.4,1.7-2.2,2.6c-0.8-1-1.5-1.7-2.3-2.7c-0.7,0.9-1.2,1.7-1.9,2.5
	c-0.9-0.9-1.7-1.6-2.5-2.3c-0.8,0.8-1.5,1.6-2.3,2.3c-0.3,0.3-0.8,0.6-1.2,0.5c-1.9-0.2-3.2,0.4-4.5,1.9c-2.6,2.8-6,3.3-9.4,1.9
	c-3.4-1.3-5.2-4-5.5-7.6c-0.4-4.8,3-8.9,7.5-9.6c3.6-0.5,6.5,0.8,8.6,3.7c0.4,0.6,0.8,0.8,1.5,0.8c5.4,0,10.8,0,16.3,0
	c0.6,0,1,0.2,1.4,0.6c0.8,0.9,1.6,1.7,2.5,2.6c0.3,0.4,0.5,0.8,0.1,1.2C167.5,43,166.2,44.2,164.7,45.6z M135.9,44.2
	c1.3,0,2.4-1.1,2.4-2.4c0-1.2-1.1-2.4-2.4-2.4c-1.3,0-2.4,1.1-2.4,2.4C133.5,43.1,134.5,44.1,135.9,44.2z"/>
</svg>
