<?xml version="1.0" encoding="utf-8"?>
<!-- Generator: Adobe Illustrator 22.0.1, SVG Export Plug-In . SVG Version: 6.00 Build 0)  -->
<svg version="1.1" id="Layer_1" xmlns="http://www.w3.org/2000/svg" xmlns:xlink="http://www.w3.org/1999/xlink" x="0px" y="0px"
	 viewBox="0 0 250 250" style="enable-background:new 0 0 250 250;" xml:space="preserve">
<style type="text/css">
	.st0{fill:#FFFFFF;}
</style>
<g>
	<path class="st0" d="M178.1,12c11.7,4.3,16,12.9,15.8,25.1c-0.4,25-0.1,49.9-0.1,74.9c0,2,0,4.1,0,6.4c-6.9,0-13.2,0-20,0
		c0-28.6,0-57.1,0-86c-39.9,0-79.3,0-118.9,0c0,52.6,0,104.9,0,158c24.6,0,49.2,0,74.3,0c0,7,0,13.3,0,20.2c-1.8,0-3.5,0-5.1,0
		c-22.5,0-45,0-67.5,0c-13.6,0-21.7-7.8-21.7-21.3c-0.1-52,0-104-0.1-156c0-11,5.8-17.4,15.3-21.4C92.6,12,135.3,12,178.1,12z"/>
	<path class="st0" d="M154.2,239c-8.4-4.1-12-10.7-11.6-20.1c0.5-11.5-0.3-23.1,0.3-34.6c0.3-4.3,2.3-9.2,5.1-12.6
		c2.3-2.9,4-5.2,4.4-9.1c0.7-5.8,1.8-11.6,3.8-17c4.5-11.9,13.2-16.8,27.9-16.7c13.6,0.1,22.1,5.3,26.8,16.9c1.1,2.6,2,5.4,2.4,8.1
		c1.1,7.5,1.3,15.1,8.6,20.2c2.1,1.4,2.5,5.3,3.7,8.1c0,14,0,28,0,42c-1.7,6.5-5.5,11.4-11.4,14.8C194.3,239,174.3,239,154.2,239z
		 M200,166c0.8-12.3-2.1-20.7-8-24c-5.2-2.9-14.1-2.6-18.3,1.1c-6.9,6.2-6.6,14.5-6.8,22.9C178.3,166,189,166,200,166z M189.1,217.3
		c1.6-7.1,3.2-13.7,4.5-20.4c0.8-4.4-1-7.9-4.7-10c-4-2.3-8-1.9-11.5,1.2c-3.5,3.2-3.6,7.1-2.2,11.4c1,2.9,1.7,6,2.1,9.1
		c0.3,2.7,0.1,5.6,0.1,8.6C181.8,217.3,185.7,217.3,189.1,217.3z"/>
	<path class="st0" d="M115.5,76.8c10.4,0,20.8-0.1,31.2,0c7.2,0,11.9,4.1,11.8,10.2c-0.1,5.8-4.6,9.9-11.5,9.9
		c-21.2,0.1-42.4,0.1-63.5,0c-7,0-11.2-4.1-11.1-10.2c0.1-6,4.3-9.8,11.4-9.9C94.3,76.7,104.9,76.8,115.5,76.8z"/>
	<path class="st0" d="M115.4,124.3c-10.4,0-20.8,0-31.2,0c-7.5,0-11.8-3.7-11.9-9.9c-0.1-6.3,4.2-10.1,11.7-10.2
		c20.8-0.1,41.6-0.1,62.4,0c7.4,0,12,4,12,10c0.1,6.2-4.7,10.1-12.4,10.1C135.8,124.4,125.6,124.3,115.4,124.3z"/>
	<path class="st0" d="M115.4,49.4c10.6,0,21.2-0.1,31.8,0c6.8,0,11.4,4.1,11.4,10c0,5.6-4.4,9.9-10.9,9.9c-21.5,0.1-43.1,0.1-64.6,0
		c-6.7,0-10.7-4.1-10.6-10c0-6.1,4.2-9.8,11.3-9.9C94.2,49.3,104.8,49.4,115.4,49.4z"/>
</g>
</svg>
