<?xml version="1.0" encoding="utf-8"?>
<!-- Generator: Adobe Illustrator 21.1.0, SVG Export Plug-In . SVG Version: 6.00 Build 0)  -->
<svg version="1.1" id="Layer_1" xmlns="http://www.w3.org/2000/svg" xmlns:xlink="http://www.w3.org/1999/xlink" x="0px" y="0px"
	 viewBox="0 0 250 250" style="enable-background:new 0 0 250 250;" xml:space="preserve">
<g>
	<path d="M91.6,5c0.3,2.2,1,4.4,1,6.5c0.1,14.8,0.1,29.5,0,44.3c0,4,0.3,7.9,5.4,7.8c5.1-0.1,5.3-4.1,5.3-8c-0.1-16.2,0-32.4,0-48.3
		c0.8-0.5,1.1-0.9,1.4-0.9c13.1-0.1,13.1-0.1,13.5,12.8c0.6,17.4,0.9,34.9,1.6,52.3c0.5,12.2-4.4,21.4-14.6,27.9
		c-1.4,0.9-2.7,2-4.1,2.7c-5.9,3.1-7.6,7.7-6.7,14.3c2.6,19.5,5.9,39,7,58.6c0.9,15.4-0.8,31-2.1,46.5c-0.6,7.2-4.5,13.1-11.4,16.4
		c-2.1,0-4.1,0-6.2,0c-6.7-2.8-10-8.3-11.3-15c-1.2-6.2-2.2-12.5-2.7-18.8c-2-26.6,2.1-52.8,6.2-78.9c1.9-12.3,0.5-21.2-11.7-27.4
		C54,93.6,49.4,85.4,49.5,76c0.3-21.5,1.2-43,2.1-64.5c0.1-1.5,2.2-3.7,3.8-4.1c3.2-0.8,6.7-0.6,10.6-0.9c0,3,0,5.2,0,7.4
		c0,14.4,0,28.7,0,43.1c0,3.7,1.4,6.1,5.2,6.3c3.8,0.1,5.5-2.2,5.4-5.9c0-1.4,0-2.9,0-4.3c0.1-16,0.2-32,0.2-48
		C81.8,5,86.7,5,91.6,5z"/>
	<path d="M163.1,238c-8.3-2-12-8.3-12.4-15.7c-1.1-18.6-3.9-37.5-1.5-55.7c6.8-51.9,8.7-103.8,7.9-156c0-1,0-1.9,0-2.8
		c13.5-2.2,27.5,5.2,34.7,17.9c5.6,9.9,7.6,20.7,8.5,31.9c0.3,3.5,0.7,6.9,1,10.4c0,4.5,0,9,0,13.6c-2.7,7.8-4.7,16.1-8.4,23.4
		c-2.9,5.7-7.8,10.5-12,15.6c-6.5,7.9-8.5,16.6-5.1,26.5c1,2.9,1.9,5.9,2.7,8.8c6.3,22.5,5.1,45.1,1.3,67.8
		c-1.2,7.3-4.8,13.1-13,14.5C165.6,238,164.4,238,163.1,238z"/>
</g>
</svg>
