<?xml version="1.0" encoding="utf-8"?>
<!-- Generator: Adobe Illustrator 22.0.1, SVG Export Plug-In . SVG Version: 6.00 Build 0)  -->
<svg version="1.1" id="Layer_1" xmlns="http://www.w3.org/2000/svg" xmlns:xlink="http://www.w3.org/1999/xlink" x="0px" y="0px"
	 viewBox="0 0 250 250" style="enable-background:new 0 0 250 250;" xml:space="preserve">
<style type="text/css">
	.st0{fill:#FFFFFF;}
</style>
<g>
	<path class="st0" d="M191.8,204c0-20.2,0-40.2,0-60.7c4.2,0,7.5,0,11.4,0c0.2,2.3,0.4,4.5,0.5,6.7c0,23.3,0.1,46.6,0,70
		c0,14.8-7,21.9-21.5,21.9c-27.7,0.1-55.4,0.1-83,0c-13.9,0-21.1-7.1-21.1-20.7C78,157.4,78,93.6,78.1,29.7
		c0-13.6,7.2-20.6,21.1-20.7c27.7-0.1,55.4-0.1,83,0c14.2,0,21.3,7.1,21.4,21.1c0.1,9.7,0,19.3,0,29.4c-4.1,0-7.3,0-11,0
		c-0.5-3.6-1-7-1.5-10.5c-33.8,0-67.2,0-101,0c0,51.8,0,103.2,0,154.9C124.1,204,157.6,204,191.8,204z M140.2,230.5
		c5.9-0.5,9.3-3.8,9.2-9.3c-0.1-5.2-3.6-8.6-8.8-8.7c-5.5-0.1-9.2,3.1-9.3,8.9C131.2,227.1,134.7,230,140.2,230.5z M129.9,31.4
		c0,0.7,0,1.4,0,2.2c7.4,0,14.9,0,22.3,0c0-0.7,0-1.4,0-2.2C144.8,31.4,137.3,31.4,129.9,31.4z"/>
	<path class="st0" d="M191,66.8c6.3,8.5,6.1,8.2,14.6,2c1.6-1.2,5.7,0,8.2,1.1c1.7,0.8,3.7,3.6,3.5,5.3c-0.7,6.4,1.5,8.6,7.9,8
		c1.8-0.2,5,2.2,5.6,4c0.9,2.6,1.2,7.2-0.2,8.4c-5.5,4.5-5.9,7.5,0.3,11.7c1.3,0.8,1.4,5.1,0.5,7.1c-1,2.3-4,5.6-5.6,5.4
		c-7.1-1.1-9.3,1.2-8.5,8.3c0.2,1.8-3,4.9-5.2,5.7c-2.1,0.8-6.1,0.3-7.4-1.3c-4.1-4.7-6.8-4.7-10.9,0c-1.4,1.6-5.8,1.8-8.2,0.9
		c-2.1-0.8-4.8-4.2-4.5-6c0.9-6.5-1.9-8.9-7.5-7.5c-5.3,1.4-5.5-2.3-6.7-5.1c-1.3-2.9-3.2-5.7,1.4-8.3c4.9-2.7,4.8-7.3,0.1-9.9
		c-4.5-2.6-3-5.2-1.6-8.2c1.4-3.1,1.8-7,7.4-5.3c1.9,0.5,7.5-4.1,7.2-4.9C177.5,67.9,186.8,70.1,191,66.8z M199,115.1
		c7.6,0,13.7-5.9,13.8-13.4s-5.9-13.9-13.3-14.2c-7.5-0.3-14.4,6.5-14.4,14C185.2,108.9,191.5,115.1,199,115.1z"/>
	<path class="st0" d="M10.6,68.8c19,0,37.1,0,55.6,0c0,3.6,0,7,0,11c-18,0-36,0-54.9,0C11.1,76.5,10.9,73.1,10.6,68.8z"/>
	<path class="st0" d="M66.2,92.1c0,3.9,0,7.4,0,11.2c-13.8,0-27.2,0-41,0c0-3.9,0-7.3,0-11.2C38.8,92.1,52.2,92.1,66.2,92.1z"/>
	<path class="st0" d="M53,126.4c0-3.9,0-7.4,0-11.2c4.6,0,8.7,0,13.3,0c0,3.8,0,7.2,0,11.2C62,126.4,57.9,126.4,53,126.4z"/>
</g>
</svg>
