<?xml version="1.0" encoding="utf-8"?>
<!-- Generator: Adobe Illustrator 22.0.1, SVG Export Plug-In . SVG Version: 6.00 Build 0)  -->
<svg version="1.1" id="Layer_1" xmlns="http://www.w3.org/2000/svg" xmlns:xlink="http://www.w3.org/1999/xlink" x="0px" y="0px"
	 viewBox="0 0 250 250" style="enable-background:new 0 0 250 250;" xml:space="preserve">
<style type="text/css">
	.st0{fill:#FFFFFF;}
</style>
<g>
	<path class="st0" d="M70,13.6c3.3,2.3,4.1,5.4,4.1,9.3C73.9,37.1,74,51.2,74,65.4c0,6.3-2.1,8.4-8.4,8.4c-14.4,0-28.9-0.1-43.3,0.1
		c-3.9,0.1-7-0.8-9.3-4.1c0-18.7,0-37.5,0-56.2C32,13.6,51,13.6,70,13.6z"/>
	<path class="st0" d="M237,69.8c-2.3,3.3-5.4,4.1-9.3,4.1c-14.4-0.2-28.9-0.1-43.3-0.1c-6.3,0-8.4-2.1-8.4-8.4
		c0-14.2,0.1-28.3-0.1-42.5c-0.1-3.9,0.8-7,4.1-9.3c19,0,38,0,57,0C237,32.3,237,51.1,237,69.8z"/>
	<path class="st0" d="M13,179.8c2.3-3.3,5.4-4.1,9.3-4.1c14.4,0.2,28.9,0.1,43.3,0.1c6.3,0,8.4,2.1,8.4,8.4
		c0,14.2-0.1,28.3,0.1,42.5c0.1,3.9-0.8,7-4.1,9.3c-18.9,0-37.9,0-57,0C13,217.3,13,198.5,13,179.8z"/>
	<path class="st0" d="M180,236c-3.3-2.3-4.1-5.4-4.1-9.3c0.2-14.2,0.1-28.3,0.1-42.5c0-6.3,2.1-8.4,8.4-8.4
		c14.4,0,28.9,0.1,43.3-0.1c3.9-0.1,7,0.8,9.3,4.1c0,18.7,0,37.5,0,56.2C218,236,199,236,180,236z"/>
	<path class="st0" d="M151.1,13.6c3.3,2.3,4.1,5.4,4.1,9.3c-0.2,14.2-0.1,28.3-0.1,42.5c0,6.3-2.1,8.4-8.4,8.4
		c-14.8,0-29.7,0-44.5,0c-5.8,0-8-2.3-8-8c0-14.3,0.1-28.6-0.1-42.9c-0.1-3.9,0.8-7,4.1-9.3C115.8,13.6,133.4,13.6,151.1,13.6z"/>
	<path class="st0" d="M13,101.1c2.3-3.3,5.4-4.1,9.3-4.1c14.4,0.2,28.9,0.1,43.3,0.1c6.3,0,8.4,2.1,8.4,8.4c0,14.4,0,28.9,0,43.3
		c0,6.3-2.1,8.4-8.4,8.4c-14.4,0-28.9-0.1-43.3,0.1c-3.9,0.1-7-0.8-9.3-4.1C13,135.9,13,118.5,13,101.1z"/>
	<path class="st0" d="M237,153.3c-2.3,3.3-5.4,4.1-9.3,4.1c-14.4-0.2-28.9-0.1-43.3-0.1c-6.3,0-8.4-2.2-8.4-8.4
		c0-14.4,0-28.9,0-43.3c0-6.3,2.1-8.4,8.4-8.4c14.4,0,28.9,0.1,43.3-0.1c3.9-0.1,7,0.8,9.3,4.1C237,118.5,237,135.9,237,153.3z"/>
	<path class="st0" d="M98.1,236c-3.3-2.3-4.1-5.4-4.1-9.3c0.2-14.2,0.1-28.3,0.1-42.5c0-6.3,2.1-8.4,8.4-8.4c14.7,0,29.4,0,44.1,0
		c6.3,0,8.4,2.1,8.4,8.4c0,14.2-0.1,28.3,0.1,42.5c0.1,3.9-0.8,7-4.1,9.3C133.4,236,115.8,236,98.1,236z"/>
	<path class="st0" d="M124.5,157.3c-7.6,0-15.2,0-22.8,0c-5.2,0-7.5-2.4-7.6-7.7c0-15,0-29.9,0-44.9c0-5.2,2.4-7.6,7.6-7.7
		c15.4,0,30.7,0,46.1,0c4.9,0,7.3,2.5,7.3,7.4c0,15.1,0,30.2,0,45.3c0,5.2-2.4,7.4-7.7,7.5C139.7,157.4,132.1,157.3,124.5,157.3z"/>
</g>
</svg>
