<?xml version="1.0" encoding="utf-8"?>
<!-- Generator: Adobe Illustrator 22.0.1, SVG Export Plug-In . SVG Version: 6.00 Build 0)  -->
<svg version="1.1" id="Layer_1" xmlns="http://www.w3.org/2000/svg" xmlns:xlink="http://www.w3.org/1999/xlink" x="0px" y="0px"
	 viewBox="0 0 250 250" style="enable-background:new 0 0 250 250;" xml:space="preserve">
<style type="text/css">
	.st0{fill:#FFFFFF;}
</style>
<g>
	<path class="st0" d="M25,164.9c5.5-21.2,21.4-31.7,40.5-37.9c26.1-8.5,52.3-8.1,78.3,0.9c2.6,0.9,5.1,2.1,8.4,3.5
		c-9.8,8.8-16.8,18.6-19.7,31c-6.3,26.7,7.2,53.4,32.5,64.1c1.8,0.8,3.1,3,4.6,4.5c-44.1,0-88.1,0-132.2,0
		c-4.1-4.6-8.2-9.2-12.3-13.8C25,199.7,25,182.3,25,164.9z"/>
	<path class="st0" d="M111.1,5c8.3,3.7,17.5,6.3,24.8,11.5C156.2,30.6,163,58,153.2,80.9c-9.9,23-34.5,36.6-58.6,32.2
		c-25-4.5-43.9-25-45.3-49.3C47.8,37.9,63.1,15.2,87,7.8c2.9-0.9,5.8-1.9,8.7-2.8C100.8,5,106,5,111.1,5z"/>
	<path class="st0" d="M232.6,181.8c-1,2.6-2.1,5.2-2.9,7.9c-7.1,21.7-28.8,35.1-51,31.5c-22.8-3.7-38.9-22.6-38.9-45.5
		s16.1-41.8,38.9-45.5c22.2-3.6,44,9.8,51,31.5c0.9,2.7,2,5.2,2.9,7.9C232.6,173.6,232.6,177.7,232.6,181.8z M190.7,205.7
		c0-8.6,0-16.9,0-25.9c9.1,0,17.1,0,25.5,0c0-3.2,0-5.6,0-9c-8.6,0-16.9,0-25.8,0c0-9.1,0-17.2,0-25.5c-3.1,0-5.5,0-9,0
		c0,8.7,0,17,0,25.9c-9.1,0-17.2,0-25.5,0c0,3.2,0,5.6,0,9.1c8.7,0,16.9,0,25.9,0c0,9.1,0,17.2,0,25.4
		C184.8,205.7,187.2,205.7,190.7,205.7z"/>
</g>
</svg>
