<?xml version="1.0" encoding="utf-8"?>
<!-- Generator: Adobe Illustrator 22.0.1, SVG Export Plug-In . SVG Version: 6.00 Build 0)  -->
<svg version="1.1" id="Layer_1" xmlns="http://www.w3.org/2000/svg" xmlns:xlink="http://www.w3.org/1999/xlink" x="0px" y="0px"
	 viewBox="0 0 250 250" style="enable-background:new 0 0 250 250;" xml:space="preserve">
<style type="text/css">
	.st0{fill:#FFFFFF;}
</style>
<g>
	<path class="st0" d="M120.5,10.6c3,0,6,0,9,0c0.7,0.1,1.4,0.3,2.2,0.4c10.8,0.9,21,4,30.3,9.4c16.9,9.6,28.7,23.6,35,42.1
		c4.5,13.4,5.3,27,1.4,40.8c-4,14.4-10,28-16.6,41.3c-16.3,32.7-35.5,63.8-55.8,94.2c-0.3,0.4-0.6,0.8-1,1.4
		c-0.5-0.6-0.8-1.1-1.1-1.5c-17.6-26.3-34.3-53.2-49.1-81.2c-7.9-14.9-15.3-30.1-20.7-46.1c-2.4-7.1-4.5-14.3-4.8-21.8
		c-0.7-19.1,5-36.1,17.1-50.8c10.1-12.7,23-21.2,38.6-25.4C110,12.1,115.3,11.5,120.5,10.6z M125.1,46.7
		C103.5,46.6,85.7,64.3,85.6,86c0,21.6,17.7,39.4,39.3,39.4c21.7,0,39.4-17.6,39.4-39.3C164.5,64.4,146.8,46.7,125.1,46.7z"/>
</g>
</svg>
