<?xml version="1.0" encoding="utf-8"?>
<!-- Generator: Adobe Illustrator 22.0.1, SVG Export Plug-In . SVG Version: 6.00 Build 0)  -->
<svg version="1.1" id="Layer_1" xmlns="http://www.w3.org/2000/svg" xmlns:xlink="http://www.w3.org/1999/xlink" x="0px" y="0px"
	 viewBox="0 0 250 250" style="enable-background:new 0 0 250 250;" xml:space="preserve">
<style type="text/css">
	.st0{fill:#FFFFFF;}
</style>
<path class="st0" d="M168,17c0,5,0,10,0,15.7c4.5,0,8.7,0,13,0c12.6,0.1,21.1,8.4,21.3,20.8c0.2,16,0.1,32,0,48c0,1-0.2,1.9-0.2,1.6
	c-10-0.5-19.7-1.4-29.4-1.5c-45.3-0.2-90.6-0.1-136-0.1c-2,0-4,0-6.4,0c-0.1,1.8-0.3,3.2-0.3,4.7c0,25.2,0,50.3,0,75.5
	c0,7,2.2,9.2,9.2,9.3c24.2,0,48.3,0.1,72.5,0c3,0,4.9,0.5,6.1,3.6l0.3,10.5c-2.1,0,1.8,0,0,0c-25.5,0-51,0-76.5,0
	c-15.4,0-20.6-3.6-25.8-18.1c0-45.7,0-91.3,0-137c5.3-13.8,10.5-17.3,25.7-17.3c5.1,0,10.2,0,16.3,0c0-5.6,0-10.7,0-15.7
	c4.3,0,8.7,0,13,0c0,5.1,0,10.2,0,15.4c28.2,0,55.5,0,83,0c0-5.4,0-10.4,0-15.4C158.7,17,163.3,17,168,17z M167.9,66.9
	c-4.9,0-9.2,0-14,0c0-6.8,0-13.4,0-20c-27.8,0-55,0-82.8,0c0,6.9,0,13.5,0,20c-4.7,0-8.8,0-13.5,0c0-6.8,0-13.4,0-20.3
	c-7.4,0-14.2-0.2-21,0.1c-3.5,0.1-6.2,2.4-6.3,5.9c-0.3,11.6-0.1,23.2-0.1,35c52.9,0,105.3,0,158.2,0c0-11.9,0.3-23.6-0.3-35.4
	c-0.1-1.9-3.3-4.9-5.5-5.3c-4.6-0.8-9.5-0.3-14.6-0.3C167.9,53.6,167.9,60,167.9,66.9z"/>
<path class="st0" d="M76.9,122.6c0,4.4,0,8.7,0,13.2c-8.6,0-17.1,0-25.8,0c0-4.3,0-8.6,0-13.2C59.7,122.6,68.2,122.6,76.9,122.6z"/>
<path class="st0" d="M77,157.1c0,4.6,0,8.7,0,13.1c-8.6,0-17.2,0-25.9,0c0-4.4,0-8.6,0-13.1C59.7,157.1,68.2,157.1,77,157.1z"/>
<path class="st0" d="M114.6,122.6c0,4.4,0,8.7,0,13.2c-8.6,0-17.1,0-25.8,0c0-4.3,0-8.6,0-13.2C97.3,122.6,105.9,122.6,114.6,122.6z
	"/>
<path class="st0" d="M114.7,157.1c0,4.6,0,8.7,0,13.1c-8.6,0-17.2,0-25.9,0c0-4.4,0-8.6,0-13.1C97.3,157.1,105.9,157.1,114.7,157.1z
	"/>
<path class="st0" d="M221.6,124.4c0.9,1.4,1.9,2.7,2.8,4.1c0.3,0.5,0.6,1.1,0.9,1.6c0.6,2.3,1.1,4.6,1.7,6.9c0,0.7,0,1.4,0,2.1
	c0,2.8-0.1,5.6-0.1,8.5c-0.1,0.9-0.2,1.8-0.3,2.7c-0.4,3.4-1.3,6.8-2.4,10c-1.1,1.9-2.1,3.9-3.2,5.8c-3.2,4.9-7.4,8.8-12.1,12
	c-1.7,0.9-3.5,1.8-5.2,2.6c-3.5,1.1-7,2.3-10.6,2.8c-0.7,0-1.4,0-2.1,0c-2.8,0-5.6,0-8.4,0c-0.7,0-1.4,0-2.1,0c-2.8,0-5.6,0-8.4,0
	c-0.7,0-1.4,0-2.1,0c-2.8,0-5.6,0-8.4,0c-0.7,0-1.4,0-2.1,0c-2.1-0.5-3.6,0.3-5.1,1.9c-3.6,3.8-7.5,7.4-11.1,11.2c-2,2.1-4.2,3-7,2
	c-0.5-0.5-1.1-0.9-1.6-1.4c-1.1-1.6-1-3.5-1.1-5.3c0-0.9,0-1.8,0-2.7c0-2.6,0-5.3,0-7.9c0-0.9,0-1.8,0-2.7c0-2.6,0-5.3,0-7.9
	c0-0.9,0-1.8,0-2.7c0-2.6,0-5.3,0-7.9c0-0.9,0-1.8,0-2.7c0-2.6,0-5.3,0-7.9c0-0.9,0-1.8,0-2.7c0-2.6,0-5.3,0-7.9
	c0-0.9,0-1.8,0.1-2.7c0.9-3.6,1.9-7.1,4.2-10.1c3.8-5,8.7-8,14.9-9.1c0.9-0.1,1.8-0.2,2.6-0.3c2.8,0,5.6,0,8.5,0c0.7,0,1.4,0,2.1,0
	c2.8,0.2,5.6,0.2,8.5,0c0.7,0,1.4,0,2.1,0c2.8,0.2,5.6,0.2,8.5,0c0.7,0,1.4,0,2.1,0c2.8,0.2,5.6,0.2,8.5,0c0.7,0,1.4,0,2.1,0
	c2.8,0,5.6,0,8.5,0c0.9,0.1,1.8,0.3,2.7,0.4c1.9,0.6,3.9,1.1,5.8,1.7c0.5,0.3,1.1,0.6,1.6,0.9c1.3,1,2.7,1.9,4,2.9
	C220.4,123.3,221,123.9,221.6,124.4z M209,132.8c-4.3-0.1-6.5,2.3-6.1,6.7c0.2,0.7,0.3,1.4,0.5,2.1c-3.4,5.6-6.9,11.2-10.3,16.8
	c-1.7,2.7-3.7,3-6.2,1.1c-0.6-0.9-1.3-1.6-2.1-2.1c-2-2.8-5.9-4.5-5.2-8.9c0.1-0.6-0.5-1.3-1.1-1.7c-0.6-1-1.5-1.6-2.7-1.7
	c-3.2-0.7-5.6,0.7-6.6,3.8c-0.2,0.7,0.1,1.6-0.8,2.1c-4.6,2.4-8.8,5.6-13.7,7.5c-0.4-0.5-0.9-0.7-1.6-0.7c-4.3-1.1-7.4,2-6.6,6.5
	c0.2,0.9,0.5,1.6,1.2,2.1c2.4,3.4,8,2.3,8.9-1.6c0.7-2.8,2.5-3.9,4.6-5c1.4-0.7,2.7-1.6,4-2.4c2.1-0.6,3.6-2.3,5.8-2.8
	c0.9,0.7,2.1,1.4,3.1,1.1c2.9-0.8,4.5,1,6.2,2.8c0.5,0.6,1.2,1,1.8,1.5c0.6,0.8,1.3,1.5,2.1,2.1c2,1.1,0.9,3.3,1.5,4.8
	c-0.1,0.9,0.3,1.6,0.9,2.2c1.5,2.2,3.5,2.9,6,2c2.4-0.8,4.3-2.7,3.6-5.1c-0.8-2.9,0.5-4.8,1.7-7c1.6-2.2,3.1-4.4,4.3-6.8
	c1.5-2.3,3.1-4.6,4.6-7c0.6-0.9,1.1-1.5,2.4-1.7c2.1-0.2,3.9-1.4,4.4-3.6c0.5-2.2,0.2-4.3-1.8-5.9C211,133.4,210.1,132.9,209,132.8z
	"/>
</svg>
